<svg
    fill="#000000"
    width="64"
    height="64"
    viewBox="0 0 24 24"
    id="diagram-bar-downtrend-2"
    data-name="Flat Color"
    xmlns="http://www.w3.org/2000/svg"
    class="icon flat-color"
>
    <g
        id="SVGRepo_bgCarrier"
        stroke-width="0"
    ></g>
    <g
        id="SVGRepo_tracerCarrier"
        stroke-linecap="round"
        stroke-linejoin="round"
    ></g>
    <g id="SVGRepo_iconCarrier">
        <path
            id="secondary"
            d="M17,16a1,1,0,0,1-1-1V11a1,1,0,0,1,2,0v4A1,1,0,0,1,17,16Zm-4,0a1,1,0,0,1-1-1V9a1,1,0,0,1,2,0v6A1,1,0,0,1,13,16ZM9,16a1,1,0,0,1-1-1V7a1,1,0,0,1,2,0v8A1,1,0,0,1,9,16Z"
            style="fill: #4f46e5;"
        ></path>
        <path
            id="primary"
            d="M5,22a1,1,0,0,1-1-1V20H3a1,1,0,0,1,0-2H4V3A1,1,0,0,1,6,3V18H21a1,1,0,0,1,0,2H6v1A1,1,0,0,1,5,22Z"
            style="fill: #4f46e5;"
        ></path>
    </g>
</svg>
