<svg
    fill="#6418C3"
    width="50px"
    height="50px"
    viewBox="-2.4 -2.4 28.80 28.80"
    xmlns="http://www.w3.org/2000/svg"
    stroke="#6418C3"
>
    <g
        id="SVGRepo_bgCarrier"
        stroke-width="0"
    ></g>
    <g
        id="SVGRepo_tracerCarrier"
        stroke-linecap="round"
        stroke-linejoin="round"
        stroke="#CCCCCC"
        stroke-width="0.144"
    ></g>
    <g id="SVGRepo_iconCarrier">
        <path
            d="M20,18a1,1,0,0,0,1-1V13a1,1,0,0,0-1-1H13V9.858a4,4,0,1,0-2,0V12H4a1,1,0,0,0-1,1v4a1,1,0,0,0,2,0V14h6v3a1,1,0,0,0,2,0V14h6v3A1,1,0,0,0,20,18ZM12,8a2,2,0,1,1,2-2A2,2,0,0,1,12,8ZM23,21a1,1,0,0,1-1,1H18a1,1,0,0,1,0-2h4A1,1,0,0,1,23,21ZM1,21a1,1,0,0,1,1-1H6a1,1,0,0,1,0,2H2A1,1,0,0,1,1,21Zm13-1a1,1,0,0,1,0,2H10a1,1,0,0,1,0-2Z"
        ></path>
    </g>
</svg>
